<svg xmlns="http://www.w3.org/2000/svg" width="8" height="13" viewBox="0 0 8 13" fill="none">
  <path d="M1.16362 13C0.843586 13 0.56964 12.8917 0.341784 12.675C0.113928 12.4584 0 12.1979 0 11.8936C0 11.5893 0.113928 11.3289 0.341784 11.1122C0.56964 10.8956 0.843586 10.7873 1.16362 10.7873C1.48366 10.7873 1.75761 10.8956 1.98546 11.1122C2.21332 11.3289 2.32725 11.5893 2.32725 11.8936C2.32725 12.1979 2.21332 12.4584 1.98546 12.675C1.75761 12.8917 1.48366 13 1.16362 13ZM6.83638 13C6.51634 13 6.24239 12.8917 6.01454 12.675C5.78668 12.4584 5.67275 12.1979 5.67275 11.8936C5.67275 11.5893 5.78668 11.3289 6.01454 11.1122C6.24239 10.8956 6.51634 10.7873 6.83638 10.7873C7.15641 10.7873 7.43036 10.8956 7.65822 11.1122C7.88607 11.3289 8 11.5893 8 11.8936C8 12.1979 7.88607 12.4584 7.65822 12.675C7.43036 12.8917 7.15641 13 6.83638 13ZM1.16362 7.60637C0.843586 7.60637 0.56964 7.49805 0.341784 7.2814C0.113928 7.06476 0 6.80429 0 6.5C0 6.19571 0.113928 5.93524 0.341784 5.7186C0.56964 5.50195 0.843586 5.39363 1.16362 5.39363C1.48366 5.39363 1.75761 5.50195 1.98546 5.7186C2.21332 5.93524 2.32725 6.19571 2.32725 6.5C2.32725 6.80429 2.21332 7.06476 1.98546 7.2814C1.75761 7.49805 1.48366 7.60637 1.16362 7.60637ZM6.83638 7.60637C6.51634 7.60637 6.24239 7.49805 6.01454 7.2814C5.78668 7.06476 5.67275 6.80429 5.67275 6.5C5.67275 6.19571 5.78668 5.93524 6.01454 5.7186C6.24239 5.50195 6.51634 5.39363 6.83638 5.39363C7.15641 5.39363 7.43036 5.50195 7.65822 5.7186C7.88607 5.93524 8 6.19571 8 6.5C8 6.80429 7.88607 7.06476 7.65822 7.2814C7.43036 7.49805 7.15641 7.60637 6.83638 7.60637ZM1.16362 2.21274C0.843586 2.21274 0.56964 2.10442 0.341784 1.88777C0.113928 1.67113 0 1.41066 0 1.10637C0 0.802078 0.113928 0.54161 0.341784 0.324965C0.56964 0.108321 0.843586 0 1.16362 0C1.48366 0 1.75761 0.108321 1.98546 0.324965C2.21332 0.54161 2.32725 0.802078 2.32725 1.10637C2.32725 1.41066 2.21332 1.67113 1.98546 1.88777C1.75761 2.10442 1.48366 2.21274 1.16362 2.21274ZM6.83638 2.21274C6.51634 2.21274 6.24239 2.10442 6.01454 1.88777C5.78668 1.67113 5.67275 1.41066 5.67275 1.10637C5.67275 0.802078 5.78668 0.54161 6.01454 0.324965C6.24239 0.108321 6.51634 0 6.83638 0C7.15641 0 7.43036 0.108321 7.65822 0.324965C7.88607 0.54161 8 0.802078 8 1.10637C8 1.41066 7.88607 1.67113 7.65822 1.88777C7.43036 2.10442 7.15641 2.21274 6.83638 2.21274Z" fill="#7D7970"/>
</svg>
